<?xml version="1.0" encoding="UTF-8" standalone="no"?>
<!DOCTYPE svg PUBLIC "-//W3C//DTD SVG 1.1//EN" "http://www.w3.org/Graphics/SVG/1.1/DTD/svg11.dtd">
<svg width="100%" height="100%" viewBox="0 0 44 44" version="1.1" xmlns="http://www.w3.org/2000/svg" xmlns:xlink="http://www.w3.org/1999/xlink" xml:space="preserve" xmlns:serif="http://www.serif.com/" style="fill-rule:evenodd;clip-rule:evenodd;">
    <g transform="matrix(1,0,0,1,-873.068,-341.64)">
        <g transform="matrix(1,0,0,1,-1.04083e-17,-7.96602)">
            <g id="Common_rarity_selected" transform="matrix(1.81108,0,0,1.81108,894.801,371.339)">
                <g transform="matrix(1,0,0,1,-12,-12)">
                    <g transform="matrix(1,0,0,1,2,3.25)">
                        <path d="M0.343,0.343L19.657,0.343L10.286,17.429L0.343,0.343Z" style="fill:url(#_Radial1);fill-rule:nonzero;"/>
                        <path d="M10.171,13.2L3.714,2.114L16.229,2.114L10.171,13.2Z" style="fill:url(#_Linear2);fill-rule:nonzero;stroke:rgb(41,90,63);stroke-width:1px;"/>
                        <path d="M19.429,0.686L0.571,0.686L0.343,0.343L19.657,0.286L19.429,0.686Z" style="fill:rgb(247,235,222);fill-rule:nonzero;"/>
                        <path d="M10.286,17.429L0.343,0.343L1.086,0.743L10.286,16.571L18.971,0.743L19.657,0.343L10.286,17.429Z" style="fill:rgb(159,141,130);fill-rule:nonzero;"/>
                    </g>
                </g>
            </g>
        </g>
    </g>
    <defs>
        <radialGradient id="_Radial1" cx="0" cy="0" r="1" gradientUnits="userSpaceOnUse" gradientTransform="matrix(9.13753,0,0,10.3293,10.006,8.88571)"><stop offset="0" style="stop-color:rgb(251,236,227);stop-opacity:1"/><stop offset="0.34" style="stop-color:rgb(229,211,199);stop-opacity:1"/><stop offset="0.75" style="stop-color:rgb(207,186,171);stop-opacity:1"/><stop offset="0.99" style="stop-color:rgb(199,176,160);stop-opacity:1"/><stop offset="1" style="stop-color:rgb(199,176,160);stop-opacity:1"/></radialGradient>
        <linearGradient id="_Linear2" x1="0" y1="0" x2="1" y2="0" gradientUnits="userSpaceOnUse" gradientTransform="matrix(12.5143,0,0,12.5143,3.7289,7.65713)"><stop offset="0" style="stop-color:rgb(20,200,122);stop-opacity:1"/><stop offset="0.59" style="stop-color:rgb(14,190,99);stop-opacity:1"/><stop offset="1" style="stop-color:rgb(11,185,88);stop-opacity:1"/></linearGradient>
    </defs>
</svg>
