<?xml version="1.0" encoding="UTF-8" standalone="no"?>
<!DOCTYPE svg PUBLIC "-//W3C//DTD SVG 1.1//EN" "http://www.w3.org/Graphics/SVG/1.1/DTD/svg11.dtd">
<svg width="100%" height="100%" viewBox="0 0 44 44" version="1.1" xmlns="http://www.w3.org/2000/svg" xmlns:xlink="http://www.w3.org/1999/xlink" xml:space="preserve" xmlns:serif="http://www.serif.com/" style="fill-rule:evenodd;clip-rule:evenodd;">
    <g transform="matrix(1,0,0,1,-960,-341.64)">
        <g transform="matrix(1,0,0,1,-1.04083e-17,-7.96602)">
            <g id="Epic_rarity_selected" transform="matrix(1.81108,0,0,1.81108,981.733,371.339)">
                <g transform="matrix(1,0,0,1,-12,-12)">
                    <g transform="matrix(1,0,0,1,2,2.4)">
                        <path d="M19.714,11.429L9.886,18.743L0.286,11.429L3.771,0.114L15.657,0.114L19.714,11.429Z" style="fill:url(#_Radial1);fill-rule:nonzero;"/>
                        <path d="M16.914,10.686L10,15.829L3.257,10.686L5.714,2.743L14.057,2.743L16.914,10.686Z" style="fill:url(#_Linear2);fill-rule:nonzero;stroke:rgb(89,38,119);stroke-width:1px;"/>
                        <g transform="matrix(1,0,0,1,3.429,0)">
                            <path d="M12.4,0.617L0.229,0.617L0.343,0.137L12.229,0.137L12.4,0.617Z" style="fill:rgb(247,235,222);fill-opacity:0.5;fill-rule:nonzero;"/>
                        </g>
                        <g transform="matrix(1,0,0,1,0,10.857)">
                            <path d="M9.829,7.886L0.286,0.571L0.4,0.229L9.829,7.429L19.6,0.229L19.714,0.571L9.829,7.886Z" style="fill:rgb(159,141,130);fill-rule:nonzero;"/>
                        </g>
                    </g>
                </g>
            </g>
        </g>
    </g>
    <defs>
        <radialGradient id="_Radial1" cx="0" cy="0" r="1" gradientUnits="userSpaceOnUse" gradientTransform="matrix(9.53202,0,0,9.94141,9.99161,9.42034)"><stop offset="0" style="stop-color:rgb(251,236,227);stop-opacity:1"/><stop offset="0.34" style="stop-color:rgb(229,211,199);stop-opacity:1"/><stop offset="0.75" style="stop-color:rgb(207,186,171);stop-opacity:1"/><stop offset="0.99" style="stop-color:rgb(199,176,160);stop-opacity:1"/><stop offset="1" style="stop-color:rgb(199,176,160);stop-opacity:1"/></radialGradient>
        <linearGradient id="_Linear2" x1="0" y1="0" x2="1" y2="0" gradientUnits="userSpaceOnUse" gradientTransform="matrix(8.0116e-16,13.0839,-13.0839,8.0116e-16,10.0707,2.73474)"><stop offset="0" style="stop-color:rgb(168,51,230);stop-opacity:1"/><stop offset="0.62" style="stop-color:rgb(147,24,213);stop-opacity:1"/><stop offset="1" style="stop-color:rgb(139,13,207);stop-opacity:1"/><stop offset="1" style="stop-color:rgb(139,13,207);stop-opacity:1"/></linearGradient>
    </defs>
</svg>
