<?xml version="1.0" encoding="UTF-8" standalone="no"?>
<!DOCTYPE svg PUBLIC "-//W3C//DTD SVG 1.1//EN" "http://www.w3.org/Graphics/SVG/1.1/DTD/svg11.dtd">
<svg width="100%" height="100%" viewBox="0 0 55 55" version="1.1" xmlns="http://www.w3.org/2000/svg" xmlns:xlink="http://www.w3.org/1999/xlink" xml:space="preserve" xmlns:serif="http://www.serif.com/" style="fill-rule:evenodd;clip-rule:evenodd;stroke-linejoin:round;stroke-miterlimit:2;">
    <g transform="matrix(1,0,0,1,-719,-274.723)">
        <g transform="matrix(1,0,0,1,181.238,56.142)">
            <g id="bilgewater_selected" transform="matrix(2.29167,0,0,2.29167,565.262,246.081)">
                <g transform="matrix(1,0,0,1,-12,-12)">
                    <clipPath id="_clip1">
                        <rect x="0" y="0" width="24" height="24"/>
                    </clipPath>
                    <g clip-path="url(#_clip1)">
                        <g id="Element-Icon-Faction-Bilgewater" serif:id="Element/Icon/Faction/Bilgewater">
                            <path id="Icon" d="M14.564,15.457C14.564,17.869 14.783,20.207 13.249,22.327C12.81,22.985 12.152,23.496 11.421,23.862C11.129,24.008 10.837,24.081 10.544,23.862C10.325,23.642 10.471,23.35 10.618,23.131C11.056,22.108 11.787,19.184 11.495,16.48C11.421,15.676 12.883,14.799 14.126,14.288C14.564,14.142 14.491,15.019 14.564,15.457ZM16.099,6.906C16.172,6.76 16.391,6.833 16.464,6.906C19.826,10.414 16.903,12.972 15.733,13.338C15.66,13.411 15.514,13.338 15.514,13.191C15.514,13.045 15.514,12.753 15.441,12.68C15.441,12.68 10.252,15.092 10.471,16.334C10.471,16.48 10.691,16.919 10.91,17.211C11.056,17.43 10.837,20.865 10.544,20.646C9.96,20.134 8.06,19.184 8.133,17.284L8.059,17.296C7.686,17.287 7.621,16.171 7.621,15.896C7.256,11.511 15.076,10.561 15.003,9.172L14.929,7.93C14.929,7.783 15.003,7.71 15.149,7.637L16.099,6.906ZM18.73,16.992C18.876,18.38 17.487,19.623 14.783,20.281C15.003,19.623 15.003,18.819 15.003,18.307C15.003,17.942 14.929,18.015 15.295,17.869C17.487,16.992 17.049,16.115 16.245,14.799C16.172,14.726 16.099,14.58 16.318,14.507C16.757,14.142 18.73,15.822 18.73,16.992ZM8.425,4.348C8.571,4.86 8.133,5.079 8.133,5.445C8.352,5.372 8.864,4.86 8.937,5.006C9.229,5.445 9.96,6.395 10.471,6.906C10.764,7.199 11.056,7.418 11.056,7.418C11.056,9.026 10.544,11.949 7.694,11.949C7.402,11.949 7.11,12.022 7.036,11.657C7.036,11.218 7.329,11.364 7.548,11.291C7.621,11.291 7.767,11.145 7.84,11.072C8.425,10.561 9.083,10.122 8.644,9.099C8.571,8.88 8.864,8.587 9.01,8.295C8.498,8.003 8.425,7.637 8.571,6.833C8.06,7.491 7.767,7.856 7.402,8.295C7.475,8.441 7.548,8.514 7.548,8.66C7.694,8.66 8.06,8.807 8.06,8.807L7.548,9.245L7.548,9.318L8.06,9.976L7.256,10.195L7.234,10.206L7.329,10.487L6.744,10.414C6.452,10.487 6.086,10.487 5.794,10.268C5.502,10.049 5.356,9.757 5.282,9.537C5.209,9.245 5.282,8.88 5.282,8.587L5.271,8.324C5.273,7.635 5.526,7.036 5.721,6.322C5.94,6.687 6.159,7.126 6.452,6.395C6.817,5.445 7.475,4.787 8.425,4.348ZM12.591,0.11C12.737,-0.037 12.883,-0.037 13.029,0.11L14.052,1.206C14.052,1.206 16.757,1.717 16.61,3.837C16.537,5.956 14.272,6.687 14.272,6.687L14.272,8.88C14.272,9.464 12.591,9.976 11.933,10.195C11.787,10.268 11.714,10.195 11.714,10.049L11.714,6.979C8.79,4.714 9.814,3.471 10.033,3.837C10.764,4.86 12.225,5.299 12.225,5.299L12.225,2.156L11.714,1.644C11.568,1.498 11.568,1.206 11.714,1.06C12.006,0.767 12.372,0.329 12.591,0.11ZM6.671,8.66C6.598,8.076 6.379,7.637 6.233,8.003C6.159,8.222 5.794,8.88 6.159,9.026C6.379,9.099 6.671,8.88 6.671,8.66ZM13.76,2.814L13.76,5.079C13.76,5.079 15.076,4.86 15.076,3.983C15.222,3.033 13.76,2.814 13.76,2.814Z" style="fill:url(#_Linear2);fill-rule:nonzero;"/>
                        </g>
                    </g>
                </g>
            </g>
        </g>
    </g>
    <defs>
        <linearGradient id="_Linear2" x1="0" y1="0" x2="1" y2="0" gradientUnits="userSpaceOnUse" gradientTransform="matrix(-0.315399,-21.1251,37.5829,-0.561115,12.8192,21.732)"><stop offset="0" style="stop-color:rgb(101,101,101);stop-opacity:1"/><stop offset="1" style="stop-color:rgb(160,160,160);stop-opacity:1"/></linearGradient>
    </defs>
</svg>
