<?xml version="1.0" encoding="UTF-8" standalone="no"?>
<!DOCTYPE svg PUBLIC "-//W3C//DTD SVG 1.1//EN" "http://www.w3.org/Graphics/SVG/1.1/DTD/svg11.dtd">
<svg width="100%" height="100%" viewBox="0 0 55 55" version="1.1" xmlns="http://www.w3.org/2000/svg" xmlns:xlink="http://www.w3.org/1999/xlink" xml:space="preserve" xmlns:serif="http://www.serif.com/" style="fill-rule:evenodd;clip-rule:evenodd;stroke-linejoin:round;stroke-miterlimit:2;">
    <g transform="matrix(1,0,0,1,-780,-274.723)">
        <g transform="matrix(1,0,0,1,181.238,56.142)">
            <g id="demacia_selected" transform="matrix(2.29167,0,0,2.29167,626.262,246.081)">
                <g transform="matrix(1,0,0,1,-12,-12)">
                    <g id="Element-Icon-Faction-Demacia" serif:id="Element/Icon/Faction/Demacia">
                        <path id="Icon" d="M12,23.657C11.931,23.657 11.793,23.657 11.724,23.589C11.241,23.246 10.759,22.971 10.414,22.629C10.276,22.491 10.207,22.354 10.345,22.217C11.034,21.326 11.034,19.611 10.828,18.651C10.828,18.514 10.759,18.377 10.552,18.446C10.552,18.446 6.483,19.543 4.069,17.829C3.655,17.554 2.828,16.663 2.552,16.183C2.207,15.497 2.069,14.606 2.414,14.949C3.034,15.634 3.793,16.046 4.276,16.114C4,15.771 2.414,14.4 2.345,13.646C2.276,13.097 2.345,12.343 2.759,12.96C3.241,13.783 4.897,15.017 5.448,15.223C5.31,14.811 4.276,13.303 3.655,12.754C3.241,12.343 2.897,11.863 2.897,11.451C2.897,11.04 3.172,9.806 3.379,10.286C3.448,10.56 4,11.52 4.414,12C4.759,12.411 6,13.714 5.931,13.577C6,12.96 4.966,11.314 4.414,10.629C4.138,10.286 3.862,9.806 3.862,9.394C3.862,8.709 4.276,7.269 4.483,7.886C4.828,9.051 6,11.314 6.759,11.931C6.828,11.794 6.69,10.766 6.414,10.217C6,9.394 5.379,8.297 5.034,7.131C4.759,6.309 4.966,5.486 5.724,4.594C6.207,3.977 6.345,3.429 6.552,5.074C6.621,6.103 6.828,7.2 6.966,8.297C7.172,9.394 7.862,11.109 8.276,12.206C8.345,12.411 8.207,12.96 8,13.097C7.103,13.577 6.966,14.194 7.241,15.017C7.931,17.074 8.552,16.389 9.448,15.566C9.793,15.291 10.552,14.674 9.931,13.646C9.862,13.509 9.793,13.44 9.862,13.303C10.276,12.48 10.414,11.657 10.483,10.766C10.552,9.189 10.345,6.857 9.379,5.349C9.31,5.211 9.379,5.143 9.379,5.006C9.793,3.291 10.897,1.851 12,0.343L12,0.274C13.034,1.783 14.207,3.291 14.621,4.937C14.69,5.074 14.69,5.143 14.621,5.28C13.655,6.789 13.448,9.051 13.517,10.697C13.586,11.52 13.724,12.411 14.138,13.234C14.207,13.371 14.138,13.44 14.069,13.577C13.448,14.606 14.207,15.223 14.552,15.497C15.517,16.389 16.069,17.006 16.759,14.949C17.034,14.126 16.897,13.509 16,13.029C15.793,12.891 15.517,12.206 15.586,12C16,10.834 16.828,9.257 17.034,8.16C17.241,7.131 17.448,6.034 17.517,5.006C17.655,3.36 17.793,3.84 18.345,4.457C19.103,5.28 19.31,6.171 19.034,6.994C18.69,8.16 18.069,9.257 17.655,10.08C17.379,10.629 17.241,11.726 17.31,11.794C18.069,11.177 19.241,8.914 19.586,7.749C19.793,7.131 20.207,8.571 20.207,9.257C20.207,9.669 19.931,10.149 19.655,10.491C19.103,11.177 18.069,12.823 18.138,13.44C18.069,13.577 19.31,12.274 19.655,11.863C20,11.451 20.552,10.423 20.69,10.149C20.897,9.737 21.172,10.903 21.172,11.314C21.172,11.794 20.828,12.274 20.414,12.617C19.793,13.234 18.759,14.674 18.621,15.086C19.103,14.88 20.828,13.646 21.31,12.823C21.655,12.137 21.793,12.891 21.724,13.509C21.655,14.263 20,15.703 19.793,15.977C20.276,15.977 21.034,15.497 21.655,14.811C21.931,14.469 21.793,15.36 21.448,15.977C21.172,16.594 20.414,17.417 20.069,17.691C17.793,19.406 13.448,18.377 13.448,18.377C13.241,18.309 13.172,18.446 13.172,18.583C13.034,19.543 12.966,21.189 13.655,22.149C13.724,22.286 13.724,22.423 13.586,22.56C13.241,22.971 12.759,23.246 12.276,23.52C12.138,23.589 12.069,23.589 12,23.589L12,23.657Z" style="fill:url(#_Linear1);fill-rule:nonzero;"/>
                    </g>
                </g>
            </g>
        </g>
    </g>
    <defs>
        <linearGradient id="_Linear1" x1="0" y1="0" x2="1" y2="0" gradientUnits="userSpaceOnUse" gradientTransform="matrix(1.36787e-15,22.339,-26.6669,1.63288e-15,12.008,0.742999)"><stop offset="0" style="stop-color:rgb(239,232,209);stop-opacity:1"/><stop offset="1" style="stop-color:rgb(198,179,116);stop-opacity:1"/></linearGradient>
    </defs>
</svg>
