<?xml version="1.0" encoding="UTF-8" standalone="no"?>
<!DOCTYPE svg PUBLIC "-//W3C//DTD SVG 1.1//EN" "http://www.w3.org/Graphics/SVG/1.1/DTD/svg11.dtd">
<svg width="100%" height="100%" viewBox="0 0 55 55" version="1.1" xmlns="http://www.w3.org/2000/svg" xmlns:xlink="http://www.w3.org/1999/xlink" xml:space="preserve" xmlns:serif="http://www.serif.com/" style="fill-rule:evenodd;clip-rule:evenodd;stroke-linejoin:round;stroke-miterlimit:2;">
    <g transform="matrix(1,0,0,1,-841,-274.723)">
        <g transform="matrix(1,0,0,1,181.238,56.142)">
            <g id="freljord_selected" transform="matrix(2.29167,0,0,2.29167,687.262,246.081)">
                <g transform="matrix(1,0,0,1,-12,-12)">
                    <g id="Element-Icon-Faction-Freljord" serif:id="Element/Icon/Faction/Freljord">
                        <path id="Icon" d="M13.987,14.329C13.987,14.329 14.342,14.682 14.413,14.894C14.484,15.106 14.768,15.318 14.555,16.376C14.271,17.435 12,23.365 12,23.365L10.155,18.353L11.787,16.729C11.787,16.729 12.426,18 12.639,18.212C12.781,18.424 13.206,16.871 13.206,16.871L12.568,15.882L13.987,14.329ZM12,6.353L15.052,10.376C15.406,10.941 15.619,11.718 14.768,12.282C13.916,12.847 9.8,17.294 9.8,17.294C9.8,17.294 9.587,16.659 9.303,15.812C9.09,15.106 9.232,14.824 9.658,14.4C10.084,13.976 12.852,11.506 12.994,11.294C13.135,11.082 11.716,9.318 11.716,9.318L10.865,10.094L11.503,11.012L9.871,12.635C9.871,12.635 8.948,11.365 8.735,10.941C8.452,10.447 8.31,10.094 8.735,9.741C9.161,9.388 12,6.353 12,6.353ZM17.11,6.706L22.716,8.118C23.142,8.329 22.858,8.612 22.858,8.612C22.858,8.612 20.09,10.306 19.806,10.376C19.594,10.447 19.31,10.871 19.168,11.294C19.026,11.647 17.606,16.235 17.535,16.659C17.394,17.082 17.181,17.506 17.11,16.941C17.039,16.376 16.897,11.082 16.826,10.376C16.755,9.671 15.548,8.471 15.548,8.471L17.11,6.706ZM6.89,6.353L8.452,8.118L8.41,8.16C8.198,8.378 7.237,9.396 7.174,10.024C7.103,10.729 6.961,16.024 6.89,16.588C6.819,17.153 6.606,16.729 6.465,16.306C6.394,15.882 4.974,11.294 4.832,10.941C4.69,10.588 4.406,10.094 4.194,10.024C3.91,9.953 1.142,8.259 1.142,8.259C1.142,8.259 0.858,7.906 1.284,7.765L6.89,6.353ZM9.871,7.059L7.742,5.012L3.484,5.647L6.677,0L10.581,0.424L10.013,2.259L8.665,2.259L8.806,1.624L7.671,1.482L6.748,3.459L9.871,3.459C10.723,2.612 12,2.753 12,2.753C12,2.753 13.277,2.612 14.129,3.459L17.252,3.459L16.329,1.482L15.194,1.624L15.406,2.259L14.058,2.259L13.348,0.424L17.323,0L20.516,5.647L16.258,5.012L14.129,7.059L12,4.235L9.871,7.059Z" style="fill:url(#_Linear1);fill-rule:nonzero;"/>
                    </g>
                </g>
            </g>
        </g>
    </g>
    <defs>
        <linearGradient id="_Linear1" x1="0" y1="0" x2="1" y2="0" gradientUnits="userSpaceOnUse" gradientTransform="matrix(0.0853822,23.3647,-24.9257,0.0910864,11.9146,0)"><stop offset="0" style="stop-color:rgb(161,161,161);stop-opacity:1"/><stop offset="0.5" style="stop-color:rgb(117,117,117);stop-opacity:1"/><stop offset="1" style="stop-color:rgb(102,102,102);stop-opacity:1"/></linearGradient>
    </defs>
</svg>
