<?xml version="1.0" encoding="UTF-8" standalone="no"?>
<!DOCTYPE svg PUBLIC "-//W3C//DTD SVG 1.1//EN" "http://www.w3.org/Graphics/SVG/1.1/DTD/svg11.dtd">
<svg width="100%" height="100%" viewBox="0 0 55 55" version="1.1" xmlns="http://www.w3.org/2000/svg" xmlns:xlink="http://www.w3.org/1999/xlink" xml:space="preserve" xmlns:serif="http://www.serif.com/" style="fill-rule:evenodd;clip-rule:evenodd;stroke-linejoin:round;stroke-miterlimit:2;">
    <g transform="matrix(1,0,0,1,-1024,-274.723)">
        <g transform="matrix(1,0,0,1,181.238,56.142)">
            <g id="piltover_and_zaun_selected" transform="matrix(2.29167,0,0,2.29167,870.262,246.081)">
                <g transform="matrix(1,0,0,1,-12,-12)">
                    <g id="Element-Icon-Faction-PiltoverZaun" serif:id="Element/Icon/Faction/PiltoverZaun">
                        <path id="Icon" d="M11.991,0.411L14.391,1.851L14.391,5.897L16.174,6.994L16.174,5.211L17.477,4.389L18.917,5.211L18.917,10.011L20.7,11.04L20.7,9.257L21.591,8.777L22.346,9.189L22.346,12.48C22.346,12.48 19.809,13.989 19.809,16.457C19.809,16.457 18.78,18.446 18.231,18.446C17.889,18.446 17.203,17.691 16.86,17.417C16.517,17.623 16.174,17.691 16.174,17.966L16.174,19.269L14.871,20.16C14.529,20.434 14.323,20.709 14.323,21.051L14.323,21.394L12.06,23.589L9.797,21.394L9.797,21.051C9.797,20.709 9.591,20.366 9.249,20.16L7.946,19.269L7.946,17.966C7.946,17.691 7.603,17.623 7.26,17.417C6.917,17.623 6.231,18.446 5.889,18.446C5.34,18.446 4.311,16.457 4.311,16.457C4.311,14.153 2.101,12.685 1.807,12.5L1.774,12.48L1.774,9.189L2.597,8.709L3.489,9.189L3.489,10.971L5.271,9.943L5.271,5.143L6.643,4.32L7.946,5.143L7.946,6.926L9.729,5.829L9.729,1.783L11.991,0.411ZM11.991,7.817C9.317,7.817 7.191,9.943 7.191,12.617C7.191,14.606 8.357,16.251 10.003,17.006L10.003,18.651C10.14,18.789 11.031,19.474 11.169,19.543L11.169,20.709C11.169,20.709 11.58,21.463 12.129,21.463C12.593,21.463 12.959,20.923 13.06,20.757L13.089,20.709L13.089,19.543C13.294,19.474 14.117,18.72 14.254,18.651L14.254,17.006C15.831,16.183 16.929,14.606 16.791,12.617C16.791,9.943 14.666,7.817 11.991,7.817ZM11.374,10.354L12.06,10.971L12.129,11.177L12.266,11.04L12.951,10.423L13.706,10.903L13.5,11.931L13.637,12L14.529,12.274L14.529,13.166L13.637,13.44L13.5,13.509L13.5,13.646L13.706,14.537L12.951,15.017L12.197,14.331L11.374,15.017L10.62,14.537L10.826,13.646L10.894,13.371L9.866,13.029L9.866,12.137L10.894,11.794L10.826,11.657L10.62,10.834L11.374,10.354Z" style="fill:url(#_Linear1);fill-rule:nonzero;"/>
                    </g>
                </g>
            </g>
        </g>
    </g>
    <defs>
        <linearGradient id="_Linear1" x1="0" y1="0" x2="1" y2="0" gradientUnits="userSpaceOnUse" gradientTransform="matrix(0.06,23.1771,-23.1771,0.06,12,0.411429)"><stop offset="0" style="stop-color:rgb(211,138,93);stop-opacity:1"/><stop offset="0.5" style="stop-color:rgb(222,156,81);stop-opacity:1"/><stop offset="1" style="stop-color:rgb(255,210,44);stop-opacity:1"/></linearGradient>
    </defs>
</svg>
