<?xml version="1.0" encoding="UTF-8" standalone="no"?>
<!DOCTYPE svg PUBLIC "-//W3C//DTD SVG 1.1//EN" "http://www.w3.org/Graphics/SVG/1.1/DTD/svg11.dtd">
<svg width="100%" height="100%" viewBox="0 0 55 55" version="1.1" xmlns="http://www.w3.org/2000/svg" xmlns:xlink="http://www.w3.org/1999/xlink" xml:space="preserve" xmlns:serif="http://www.serif.com/" style="fill-rule:evenodd;clip-rule:evenodd;stroke-linejoin:round;stroke-miterlimit:2;">
    <g transform="matrix(1,0,0,1,-1085,-274.723)">
        <g transform="matrix(1,0,0,1,181.238,56.142)">
            <g id="shadow_isles_selected" transform="matrix(2.29167,0,0,2.29167,931.262,246.081)">
                <g transform="matrix(1,0,0,1,-12,-12)">
                    <g id="Element-Icon-Faction-ShadowIsles" serif:id="Element/Icon/Faction/ShadowIsles">
                        <path id="Icon" d="M11.551,4.046C11.551,4.046 12.511,6.034 13.471,7.131C15.049,8.914 17.174,11.52 17.174,11.52C17.449,10.217 16.283,8.571 16.283,8.571C16.283,8.571 17.517,9.051 18.683,10.217C19.917,11.383 20.534,13.92 20.534,16.8C20.534,19.749 17.037,23.657 11.483,23.657C11.483,23.657 1.471,23.794 3.186,13.714C3.871,18.034 6.477,21.874 11.551,21.943C15.254,22.011 16.9,18.857 16.9,18.857C14.089,20.503 11.689,20.297 11.689,20.297C9.083,20.297 7.78,18.514 7.026,16.183C7.986,13.989 9.083,11.863 11.689,11.863C14.294,11.863 15.117,15.36 15.117,15.36C15.117,15.36 13.951,13.44 11.689,13.371C9.494,13.371 8.534,14.949 7.711,16.183C8.397,17.486 9.494,18.514 11.689,18.514C13.814,18.514 17.174,16.183 17.174,16.183C16.909,10.224 11.914,9.955 11.57,9.943L11.551,9.943C4.9,11.314 5.791,16.663 5.791,16.663C3.871,14.263 4.626,11.314 5.106,9.874C5.791,7.886 7.643,6.857 7.643,6.857C7.643,6.857 6.546,9.326 6.957,9.943C6.957,9.943 8.534,8.297 9.563,7.2C10.66,6.034 11.551,4.046 11.551,4.046ZM11.551,14.811C12.309,14.811 12.923,15.425 12.923,16.183C12.923,16.94 12.309,17.554 11.551,17.554C10.794,17.554 10.18,16.94 10.18,16.183C10.18,15.425 10.794,14.811 11.551,14.811ZM12.923,0.343C12.923,0.343 13.197,1.577 14.294,2.4C15.391,3.223 16.626,4.114 16.763,6.514C16.763,6.514 15.529,5.211 14.089,4.457C12.717,3.771 12.306,1.714 12.923,0.343Z" style="fill:url(#_Linear1);fill-rule:nonzero;"/>
                    </g>
                </g>
            </g>
        </g>
    </g>
    <defs>
        <linearGradient id="_Linear1" x1="0" y1="0" x2="1" y2="0" gradientUnits="userSpaceOnUse" gradientTransform="matrix(1.44859e-15,23.6573,-31.4348,1.92483e-15,11.5514,0)"><stop offset="0" style="stop-color:rgb(6,238,255);stop-opacity:1"/><stop offset="0.43" style="stop-color:rgb(4,194,196);stop-opacity:1"/><stop offset="1" style="stop-color:rgb(0,97,67);stop-opacity:1"/></linearGradient>
    </defs>
</svg>
