<?xml version="1.0" encoding="UTF-8" standalone="no"?>
<!DOCTYPE svg PUBLIC "-//W3C//DTD SVG 1.1//EN" "http://www.w3.org/Graphics/SVG/1.1/DTD/svg11.dtd">
<svg width="100%" height="100%" viewBox="0 0 55 55" version="1.1" xmlns="http://www.w3.org/2000/svg" xmlns:xlink="http://www.w3.org/1999/xlink" xml:space="preserve" xmlns:serif="http://www.serif.com/" style="fill-rule:evenodd;clip-rule:evenodd;stroke-linejoin:round;stroke-miterlimit:2;">
    <g transform="matrix(1,0,0,1,-1146,-274.723)">
        <g transform="matrix(1,0,0,1,181.238,56.142)">
            <g id="targon_selected" transform="matrix(1.57143,0,0,1.57143,992.262,246.081)">
                <g transform="matrix(1,0,0,1,-17.5,-17.5)">
                    <g transform="matrix(1.02192,0,0,1.02192,-0.0259727,-1.15009)">
                        <g>
                            <g>
                                <path d="M33.2,5C33.2,5 32.5,5.1 31.8,5.1C31.3,4.2 30.4,3.6 29.3,3.6C27.8,3.6 26.5,4.8 26.4,6.3L23.5,7.3C21.7,5.2 19,3.8 15.9,3.8C10.7,3.8 6.5,7.8 6,12.9L4.2,13.5C3.9,13.2 3.5,13.1 3,13.1C2,13.1 1.1,13.9 1.1,15C1.1,16 1.9,16.9 3,16.9C3.9,16.9 4.6,16.3 4.8,15.5L6,15.2C6.2,16.6 6.7,18 7.4,19.1L8.2,16.4C7.9,15.6 7.8,14.8 7.8,13.9C7.8,9.4 11.4,5.8 15.8,5.8C20.2,5.8 23.8,9.4 23.8,13.9C23.8,15.4 23.4,16.8 22.7,18L23.3,20.4C24.9,18.7 25.8,16.4 25.8,13.8C25.8,12.2 25.4,10.7 24.8,9.4L27.1,8.4C27.6,9 28.4,9.4 29.3,9.4C30.9,9.4 32.2,8.1 32.2,6.5L32.2,6.1L33.2,5Z" style="fill:url(#_Linear1);fill-rule:nonzero;"/>
                                <path d="M16.1,11.7L16,9.1L15.8,9C14.8,9.8 12.6,11.8 12.6,11.8L10.6,23.8L13.7,26.5L15.4,21.8L16,32.9L20.3,26L18.2,12.4L16.1,11.7Z" style="fill:url(#_Linear2);fill-rule:nonzero;"/>
                            </g>
                        </g>
                    </g>
                </g>
            </g>
        </g>
    </g>
    <defs>
        <linearGradient id="_Linear1" x1="0" y1="0" x2="1" y2="0" gradientUnits="userSpaceOnUse" gradientTransform="matrix(1.79411e-15,29.3,-29.3,1.79411e-15,17.15,3.6)"><stop offset="0" style="stop-color:rgb(161,161,161);stop-opacity:1"/><stop offset="1" style="stop-color:rgb(102,102,102);stop-opacity:1"/></linearGradient>
        <linearGradient id="_Linear2" x1="0" y1="0" x2="1" y2="0" gradientUnits="userSpaceOnUse" gradientTransform="matrix(1.79411e-15,29.3,-29.3,1.79411e-15,17.15,3.6)"><stop offset="0" style="stop-color:rgb(161,161,161);stop-opacity:1"/><stop offset="1" style="stop-color:rgb(102,102,102);stop-opacity:1"/></linearGradient>
    </defs>
</svg>
