<?xml version="1.0" encoding="UTF-8" standalone="no"?>
<!DOCTYPE svg PUBLIC "-//W3C//DTD SVG 1.1//EN" "http://www.w3.org/Graphics/SVG/1.1/DTD/svg11.dtd">
<svg width="100%" height="100%" viewBox="0 0 34 34" version="1.1" xmlns="http://www.w3.org/2000/svg" xmlns:xlink="http://www.w3.org/1999/xlink" xml:space="preserve" xmlns:serif="http://www.serif.com/" style="fill-rule:evenodd;clip-rule:evenodd;stroke-linecap:round;stroke-linejoin:round;stroke-miterlimit:1.5;">
    <g transform="matrix(1,0,0,1,-877.801,-394.528)">
        <g transform="matrix(1,0,0,1,0.0261285,-0.628514)">
            <g transform="matrix(0.998419,0,0,0.998419,1.38859,-0.636226)">
                <g id="_1" serif:id="1">
                    <g id="Unselected">
                        <g transform="matrix(1,0,0,1,266.574,3.84801)">
                            <circle cx="628.227" cy="409.598" r="16.526" style="fill:none;stroke:white;stroke-width:1px;"/>
                        </g>
                        <g transform="matrix(1.00158,0,0,1.00158,318.79,3.05196)">
                            <g transform="matrix(24,0,0,24,568.44,417.253)">
                                <path d="M0.231,-0.513L0.153,-0.428L0.089,-0.493C0.159,-0.56 0.215,-0.617 0.258,-0.666L0.363,-0.666L0.363,-0.135C0.363,-0.064 0.382,-0.019 0.421,-0L0.174,-0C0.212,-0.022 0.231,-0.067 0.231,-0.135L0.231,-0.513Z" style="fill:white;fill-rule:nonzero;"/>
                            </g>
                        </g>
                    </g>
                </g>
            </g>
        </g>
    </g>
</svg>
