<?xml version="1.0" encoding="UTF-8" standalone="no"?>
<!DOCTYPE svg PUBLIC "-//W3C//DTD SVG 1.1//EN" "http://www.w3.org/Graphics/SVG/1.1/DTD/svg11.dtd">
<svg width="100%" height="100%" viewBox="0 0 34 34" version="1.1" xmlns="http://www.w3.org/2000/svg" xmlns:xlink="http://www.w3.org/1999/xlink" xml:space="preserve" xmlns:serif="http://www.serif.com/" style="fill-rule:evenodd;clip-rule:evenodd;stroke-linejoin:round;stroke-miterlimit:2;">
    <g transform="matrix(1,0,0,1,-921.267,-394.528)">
        <g transform="matrix(1,0,0,1,0.801391,-0.628514)">
            <g id="Selected" transform="matrix(1,0,0,1,-0.801391,0.628514)">
                <path d="M938.267,394.528C947.65,394.528 955.267,402.145 955.267,411.528C955.267,420.911 947.65,428.528 938.267,428.528C928.884,428.528 921.267,420.911 921.267,411.528C921.267,402.145 928.884,394.528 938.267,394.528ZM940.295,407.707C940.295,406.859 940.047,406.191 939.551,405.703C939.055,405.215 938.431,404.971 937.679,404.971C936.959,404.971 936.403,405.155 936.011,405.523C935.619,405.891 935.423,406.299 935.423,406.747C935.423,407.115 935.543,407.443 935.783,407.731C936.023,408.019 936.375,408.211 936.839,408.307L934.703,410.635C934.079,410.459 933.547,410.087 933.107,409.519C932.667,408.951 932.447,408.267 932.447,407.467C932.447,406.091 932.995,404.951 934.091,404.047C935.187,403.143 936.639,402.691 938.447,402.691C939.983,402.691 941.239,403.111 942.215,403.951C943.191,404.791 943.679,405.915 943.679,407.323C943.679,408.011 943.499,408.735 943.139,409.495C942.779,410.255 942.239,411.107 941.519,412.051C940.799,412.995 939.503,414.491 937.631,416.539L941.591,416.539C942.967,416.539 943.903,416.131 944.399,415.315L943.847,419.035L932.087,419.035L936.047,414.667C937.823,412.699 938.975,411.251 939.503,410.323C940.031,409.395 940.295,408.523 940.295,407.707Z" style="fill:white;"/>
            </g>
        </g>
    </g>
</svg>
