<?xml version="1.0" encoding="UTF-8" standalone="no"?>
<!DOCTYPE svg PUBLIC "-//W3C//DTD SVG 1.1//EN" "http://www.w3.org/Graphics/SVG/1.1/DTD/svg11.dtd">
<svg width="100%" height="100%" viewBox="0 0 34 34" version="1.1" xmlns="http://www.w3.org/2000/svg" xmlns:xlink="http://www.w3.org/1999/xlink" xml:space="preserve" xmlns:serif="http://www.serif.com/" style="fill-rule:evenodd;clip-rule:evenodd;stroke-linecap:round;stroke-linejoin:round;stroke-miterlimit:1.5;">
    <g transform="matrix(1,0,0,1,-921.267,-394.528)">
        <g transform="matrix(1,0,0,1,0.801391,-0.628514)">
            <g id="Unselected" transform="matrix(0.998419,0,0,0.998419,44.0794,-0.636226)">
                <g transform="matrix(1,0,0,1,266.574,3.84801)">
                    <circle cx="628.227" cy="409.598" r="16.526" style="fill:none;stroke:white;stroke-width:1px;"/>
                </g>
                <g transform="matrix(1.00158,0,0,1.00158,318.79,3.05196)">
                    <g id="_2" serif:id="2" transform="matrix(24,0,0,24,568.44,417.253)">
                        <path d="M0.362,-0.472C0.362,-0.507 0.352,-0.535 0.331,-0.556C0.31,-0.576 0.284,-0.586 0.253,-0.586C0.223,-0.586 0.2,-0.578 0.184,-0.563C0.167,-0.548 0.159,-0.531 0.159,-0.512C0.159,-0.497 0.164,-0.483 0.174,-0.471C0.184,-0.459 0.199,-0.451 0.218,-0.447L0.129,-0.35C0.103,-0.357 0.081,-0.373 0.063,-0.397C0.044,-0.42 0.035,-0.449 0.035,-0.482C0.035,-0.539 0.058,-0.587 0.103,-0.625C0.149,-0.662 0.21,-0.681 0.285,-0.681C0.349,-0.681 0.401,-0.664 0.442,-0.628C0.483,-0.594 0.503,-0.547 0.503,-0.488C0.503,-0.459 0.496,-0.429 0.481,-0.398C0.466,-0.366 0.443,-0.33 0.413,-0.291C0.383,-0.252 0.329,-0.189 0.251,-0.104L0.416,-0.104C0.473,-0.104 0.512,-0.121 0.533,-0.155L0.51,-0L0.02,-0L0.185,-0.182C0.259,-0.264 0.307,-0.324 0.329,-0.363C0.351,-0.402 0.362,-0.438 0.362,-0.472Z" style="fill:white;fill-rule:nonzero;"/>
                    </g>
                </g>
            </g>
        </g>
    </g>
</svg>
