<?xml version="1.0" encoding="UTF-8" standalone="no"?>
<!DOCTYPE svg PUBLIC "-//W3C//DTD SVG 1.1//EN" "http://www.w3.org/Graphics/SVG/1.1/DTD/svg11.dtd">
<svg width="100%" height="100%" viewBox="0 0 34 34" version="1.1" xmlns="http://www.w3.org/2000/svg" xmlns:xlink="http://www.w3.org/1999/xlink" xml:space="preserve" xmlns:serif="http://www.serif.com/" style="fill-rule:evenodd;clip-rule:evenodd;stroke-linejoin:round;stroke-miterlimit:2;">
    <g transform="matrix(1,0,0,1,-964.733,-394.528)">
        <g transform="matrix(1,0,0,1,0.171955,-0.628514)">
            <g id="Selected" transform="matrix(1,0,0,1,-0.171955,0.628514)">
                <path d="M981.733,394.528C991.116,394.528 998.733,402.145 998.733,411.528C998.733,420.911 991.116,428.528 981.733,428.528C972.35,428.528 964.733,420.911 964.733,411.528C964.733,402.145 972.35,394.528 981.733,394.528ZM978.241,414.403C978.801,416.195 979.873,417.091 981.457,417.091C982.257,417.091 982.873,416.855 983.305,416.383C983.737,415.911 983.953,415.331 983.953,414.643C983.953,412.707 982.153,411.667 978.553,411.523L982.921,405.547L979.249,405.547C977.889,405.547 976.921,405.955 976.345,406.771L976.921,403.051L987.505,403.051L982.393,409.699C984.041,409.971 985.257,410.519 986.041,411.343C986.825,412.167 987.217,413.155 987.217,414.307C987.217,415.811 986.657,417.035 985.537,417.979C984.417,418.923 982.945,419.395 981.121,419.395C979.713,419.395 978.521,419.119 977.545,418.567C976.569,418.015 975.897,417.275 975.529,416.347L978.241,414.403Z" style="fill:white;"/>
            </g>
        </g>
    </g>
</svg>
