<?xml version="1.0" encoding="UTF-8" standalone="no"?>
<!DOCTYPE svg PUBLIC "-//W3C//DTD SVG 1.1//EN" "http://www.w3.org/Graphics/SVG/1.1/DTD/svg11.dtd">
<svg width="100%" height="100%" viewBox="0 0 630 180" version="1.1" xmlns="http://www.w3.org/2000/svg" xmlns:xlink="http://www.w3.org/1999/xlink" xml:space="preserve" xmlns:serif="http://www.serif.com/" style="fill-rule:evenodd;clip-rule:evenodd;stroke-linejoin:round;stroke-miterlimit:2;">
    <g transform="matrix(4.16667,0,0,4.16667,-3685.42,-1876.08)">
        <g transform="matrix(1,0,0,1,4.54747e-13,4.36131)">
            <path id="Selected" d="M1035.5,467.399C1035.5,455.533 1025.87,445.899 1014,445.899L906,445.899C894.134,445.899 884.5,455.533 884.5,467.399C884.5,479.265 894.134,488.899 906,488.899L1014,488.899C1025.87,488.899 1035.5,479.265 1035.5,467.399ZM912.12,469.776C912.12,469.264 912.048,468.848 911.904,468.528C911.76,468.208 911.584,467.96 911.376,467.784C911.168,467.608 910.952,467.504 910.728,467.472L916.752,467.472C916.544,467.504 916.336,467.604 916.128,467.772C915.92,467.94 915.752,468.184 915.624,468.504C915.496,468.824 915.432,469.224 915.432,469.704L915.432,474.096C913.832,474.736 911.928,475.056 909.72,475.056C908.12,475.056 906.708,474.716 905.484,474.036C904.26,473.356 903.308,472.396 902.628,471.156C901.948,469.916 901.608,468.552 901.608,467.064C901.608,465.432 901.98,463.948 902.724,462.612C903.468,461.276 904.524,460.228 905.892,459.468C907.26,458.708 908.848,458.328 910.656,458.328C912.512,458.328 914.056,458.648 915.288,459.288L915.288,463.44C914.84,462.592 914.188,461.924 913.332,461.436C912.476,460.948 911.504,460.704 910.416,460.704C908.88,460.704 907.632,461.256 906.672,462.36C905.712,463.464 905.232,464.888 905.232,466.632C905.232,468.36 905.704,469.792 906.648,470.928C907.592,472.064 908.816,472.632 910.32,472.632C910.848,472.632 911.448,472.528 912.12,472.32L912.12,469.776ZM919.584,461.376C919.584,460.672 919.456,460.076 919.2,459.588C918.944,459.1 918.576,458.8 918.096,458.688L928.968,458.688L928.968,462.96C928.744,462.192 928.392,461.652 927.912,461.34C927.432,461.028 926.808,460.872 926.04,460.872L923.016,460.872L923.016,465.504L925.656,465.504C926.664,465.52 927.304,465.248 927.576,464.688L927.576,468.48C927.544,468.272 927.372,468.088 927.06,467.928C926.748,467.768 926.296,467.688 925.704,467.688L923.016,467.688L923.016,472.464L926.28,472.464C927.288,472.464 928.052,472.3 928.572,471.972C929.092,471.644 929.576,471.056 930.024,470.208L929.256,474.672L918.288,474.672C918.496,474.64 918.696,474.524 918.888,474.324C919.08,474.124 919.244,473.824 919.38,473.424C919.516,473.024 919.584,472.488 919.584,471.816L919.584,461.376ZM950.088,461.376C950.088,460.672 949.96,460.076 949.704,459.588C949.448,459.1 949.08,458.8 948.6,458.688L959.472,458.688L959.472,462.96C959.248,462.192 958.896,461.652 958.416,461.34C957.936,461.028 957.312,460.872 956.544,460.872L953.52,460.872L953.52,465.504L956.16,465.504C957.168,465.52 957.808,465.248 958.08,464.688L958.08,468.48C958.048,468.272 957.876,468.088 957.564,467.928C957.252,467.768 956.8,467.688 956.208,467.688L953.52,467.688L953.52,472.464L956.784,472.464C957.792,472.464 958.556,472.3 959.076,471.972C959.596,471.644 960.08,471.056 960.528,470.208L959.76,474.672L948.792,474.672C949,474.64 949.2,474.524 949.392,474.324C949.584,474.124 949.748,473.824 949.884,473.424C950.02,473.024 950.088,472.488 950.088,471.816L950.088,461.376ZM1008.19,461.376C1008.19,460.672 1008.06,460.076 1007.81,459.588C1007.55,459.1 1007.18,458.8 1006.7,458.688L1017.58,458.688L1017.58,462.96C1017.35,462.192 1017,461.652 1016.52,461.34C1016.04,461.028 1015.42,460.872 1014.65,460.872L1011.62,460.872L1011.62,465.504L1014.26,465.504C1015.27,465.52 1015.91,465.248 1016.18,464.688L1016.18,468.48C1016.15,468.272 1015.98,468.088 1015.67,467.928C1015.36,467.768 1014.9,467.688 1014.31,467.688L1011.62,467.688L1011.62,472.464L1014.89,472.464C1015.9,472.464 1016.66,472.3 1017.18,471.972C1017.7,471.644 1018.18,471.056 1018.63,470.208L1017.86,474.672L1006.9,474.672C1007.1,474.64 1007.3,474.524 1007.5,474.324C1007.69,474.124 1007.85,473.824 1007.99,473.424C1008.12,473.024 1008.19,472.488 1008.19,471.816L1008.19,461.376ZM976.032,474.672C975.728,474.656 975.38,474.488 974.988,474.168C974.596,473.848 974.248,473.416 973.944,472.872L971.808,469.176C971.424,468.504 971.024,468.04 970.608,467.784C971.824,467.624 972.78,467.128 973.476,466.296C974.172,465.464 974.52,464.488 974.52,463.368C974.52,462.04 974.004,460.928 972.972,460.032C971.94,459.136 970.568,458.688 968.856,458.688L961.824,458.688C962.8,459.008 963.288,459.936 963.288,461.472L963.288,472.008C963.288,472.6 963.228,473.092 963.108,473.484C962.988,473.876 962.828,474.164 962.628,474.348C962.428,474.532 962.224,474.64 962.016,474.672L967.8,474.672C967.608,474.64 967.42,474.532 967.236,474.348C967.052,474.164 966.896,473.88 966.768,473.496C966.64,473.112 966.576,472.616 966.576,472.008L966.576,468.384L966.912,468.384C967.232,468.384 967.504,468.476 967.728,468.66C967.952,468.844 968.208,469.208 968.496,469.752L971.16,474.672L976.032,474.672ZM996.504,460.872L993.6,460.872C992.592,460.872 991.872,461.32 991.44,462.216L991.056,463.032L991.44,458.688L1005.1,458.688L1005.46,463.032C1005.12,462.184 1004.72,461.612 1004.27,461.316C1003.81,461.02 1003.22,460.872 1002.48,460.872L1000.01,460.872L1000.01,471.984C1000.01,472.8 1000.13,473.444 1000.37,473.916C1000.61,474.388 1000.9,474.64 1001.23,474.672L995.28,474.672C995.632,474.624 995.924,474.38 996.156,473.94C996.388,473.5 996.504,472.848 996.504,471.984L996.504,460.872ZM932.832,461.52C932.832,461.04 932.716,460.616 932.484,460.248C932.252,459.88 931.956,459.552 931.596,459.264C931.236,458.976 930.92,458.784 930.648,458.688L935.736,458.688L943.272,468.12L943.272,461.328C943.272,460.752 943.212,460.288 943.092,459.936C942.972,459.584 942.832,459.316 942.672,459.132C942.512,458.948 942.272,458.8 941.952,458.688L947.16,458.688C946.792,458.752 946.492,459.016 946.26,459.48C946.028,459.944 945.912,460.56 945.912,461.328L945.912,474.672L943.416,474.672C942.84,473.232 941.984,471.824 940.848,470.448L935.496,463.92L935.496,472.056C935.496,472.648 935.568,473.132 935.712,473.508C935.856,473.884 936.044,474.164 936.276,474.348C936.508,474.532 936.728,474.64 936.936,474.672L931.608,474.672C931.816,474.64 932.016,474.528 932.208,474.336C932.4,474.144 932.552,473.864 932.664,473.496C932.776,473.128 932.832,472.648 932.832,472.056L932.832,461.52ZM981.408,474.672C981.152,474.64 980.924,474.52 980.724,474.312C980.524,474.104 980.424,473.808 980.424,473.424C980.424,473.088 980.672,472.24 981.168,470.88L987.288,470.88C987.864,472.416 988.152,473.304 988.152,473.544C988.152,473.88 988.068,474.144 987.9,474.336C987.732,474.528 987.52,474.64 987.264,474.672L993.72,474.672C992.872,474.4 992.112,473.4 991.44,471.672L986.16,458.688L983.328,458.688L978.288,471.6C977.92,472.544 977.532,473.28 977.124,473.808C976.716,474.336 976.352,474.624 976.032,474.672L981.408,474.672ZM986.472,468.792L984.192,462.888L981.96,468.792L986.472,468.792ZM968.232,466.224C969.128,466.224 969.828,465.976 970.332,465.48C970.836,464.984 971.088,464.312 971.088,463.464C971.088,462.712 970.828,462.092 970.308,461.604C969.788,461.116 969.088,460.872 968.208,460.872L966.552,460.872L966.552,466.224L968.232,466.224Z" style="fill:white;"/>
        </g>
    </g>
</svg>
