<?xml version="1.0" encoding="UTF-8" standalone="no"?>
<!DOCTYPE svg PUBLIC "-//W3C//DTD SVG 1.1//EN" "http://www.w3.org/Graphics/SVG/1.1/DTD/svg11.dtd">
<svg width="100%" height="100%" viewBox="0 0 630 180" version="1.1" xmlns="http://www.w3.org/2000/svg" xmlns:xlink="http://www.w3.org/1999/xlink" xml:space="preserve" xmlns:serif="http://www.serif.com/" style="fill-rule:evenodd;clip-rule:evenodd;stroke-linecap:round;stroke-linejoin:round;stroke-miterlimit:1.5;">
    <g transform="matrix(4.16667,0,0,4.16667,-3685.42,-1876.08)">
        <g transform="matrix(1,0,0,1,4.54747e-13,4.36131)">
            <g id="Unselected">
                <g id="Generate-Button" serif:id="Generate Button" transform="matrix(0.562246,0,0,0.287329,599.565,319.455)">
                    <path d="M774.456,514.894C774.456,474.556 757.72,441.807 737.106,441.807L545.019,441.807C524.405,441.807 507.669,474.556 507.669,514.894C507.669,555.232 524.405,587.981 545.019,587.981L737.106,587.981C757.72,587.981 774.456,555.232 774.456,514.894Z" style="fill:rgb(109,96,81);fill-opacity:0;stroke:white;stroke-width:2.24px;"/>
                </g>
                <g transform="matrix(1,0,0,1,26.4461,54.248)">
                    <g transform="matrix(24,0,0,24,874.37,420.424)">
                        <path d="M0.471,-0.204C0.471,-0.225 0.468,-0.243 0.462,-0.256C0.456,-0.269 0.449,-0.28 0.44,-0.287C0.431,-0.294 0.422,-0.299 0.413,-0.3L0.664,-0.3C0.655,-0.299 0.647,-0.295 0.638,-0.288C0.629,-0.281 0.622,-0.27 0.617,-0.257C0.612,-0.244 0.609,-0.227 0.609,-0.207L0.609,-0.024C0.542,0.003 0.463,0.016 0.371,0.016C0.304,0.016 0.246,0.002 0.195,-0.027C0.143,-0.055 0.104,-0.095 0.076,-0.147C0.047,-0.198 0.033,-0.255 0.033,-0.317C0.033,-0.385 0.049,-0.447 0.08,-0.502C0.111,-0.558 0.155,-0.602 0.212,-0.633C0.269,-0.665 0.335,-0.681 0.41,-0.681C0.487,-0.681 0.552,-0.668 0.603,-0.641L0.603,-0.468C0.584,-0.503 0.557,-0.531 0.522,-0.552C0.486,-0.572 0.445,-0.582 0.4,-0.582C0.336,-0.582 0.284,-0.559 0.244,-0.513C0.204,-0.467 0.184,-0.408 0.184,-0.335C0.184,-0.263 0.204,-0.203 0.243,-0.156C0.282,-0.109 0.333,-0.085 0.396,-0.085C0.418,-0.085 0.443,-0.089 0.471,-0.098L0.471,-0.204Z" style="fill:white;fill-rule:nonzero;"/>
                    </g>
                    <g transform="matrix(24,0,0,24,890.978,420.424)">
                        <path d="M0.09,-0.554C0.09,-0.583 0.085,-0.608 0.074,-0.628C0.063,-0.649 0.048,-0.661 0.028,-0.666L0.481,-0.666L0.481,-0.488C0.472,-0.52 0.457,-0.543 0.437,-0.556C0.417,-0.569 0.391,-0.575 0.359,-0.575L0.233,-0.575L0.233,-0.382L0.343,-0.382C0.385,-0.381 0.412,-0.393 0.423,-0.416L0.423,-0.258C0.422,-0.267 0.414,-0.274 0.402,-0.281C0.389,-0.288 0.37,-0.291 0.345,-0.291L0.233,-0.291L0.233,-0.092L0.369,-0.092C0.411,-0.092 0.443,-0.099 0.465,-0.113C0.486,-0.126 0.506,-0.151 0.525,-0.186L0.493,-0L0.036,-0C0.045,-0.001 0.053,-0.006 0.061,-0.015C0.069,-0.023 0.076,-0.035 0.082,-0.052C0.087,-0.069 0.09,-0.091 0.09,-0.119L0.09,-0.554Z" style="fill:white;fill-rule:nonzero;"/>
                    </g>
                    <g transform="matrix(24,0,0,24,904.13,420.424)">
                        <path d="M0.094,-0.548C0.094,-0.568 0.089,-0.586 0.08,-0.601C0.07,-0.616 0.058,-0.63 0.043,-0.642C0.028,-0.654 0.014,-0.662 0.003,-0.666L0.215,-0.666L0.529,-0.273L0.529,-0.556C0.529,-0.58 0.527,-0.599 0.522,-0.614C0.517,-0.629 0.511,-0.64 0.504,-0.648C0.497,-0.655 0.487,-0.661 0.474,-0.666L0.691,-0.666C0.676,-0.663 0.663,-0.652 0.654,-0.633C0.644,-0.614 0.639,-0.588 0.639,-0.556L0.639,-0L0.535,-0C0.511,-0.06 0.475,-0.119 0.428,-0.176L0.205,-0.448L0.205,-0.109C0.205,-0.084 0.208,-0.064 0.214,-0.049C0.22,-0.033 0.228,-0.021 0.237,-0.014C0.247,-0.006 0.256,-0.001 0.265,-0L0.043,-0C0.052,-0.001 0.06,-0.006 0.068,-0.014C0.076,-0.022 0.082,-0.034 0.087,-0.049C0.092,-0.064 0.094,-0.084 0.094,-0.109L0.094,-0.548Z" style="fill:white;fill-rule:nonzero;"/>
                    </g>
                    <g transform="matrix(24,0,0,24,921.482,420.424)">
                        <path d="M0.09,-0.554C0.09,-0.583 0.085,-0.608 0.074,-0.628C0.063,-0.649 0.048,-0.661 0.028,-0.666L0.481,-0.666L0.481,-0.488C0.472,-0.52 0.457,-0.543 0.437,-0.556C0.417,-0.569 0.391,-0.575 0.359,-0.575L0.233,-0.575L0.233,-0.382L0.343,-0.382C0.385,-0.381 0.412,-0.393 0.423,-0.416L0.423,-0.258C0.422,-0.267 0.414,-0.274 0.402,-0.281C0.389,-0.288 0.37,-0.291 0.345,-0.291L0.233,-0.291L0.233,-0.092L0.369,-0.092C0.411,-0.092 0.443,-0.099 0.465,-0.113C0.486,-0.126 0.506,-0.151 0.525,-0.186L0.493,-0L0.036,-0C0.045,-0.001 0.053,-0.006 0.061,-0.015C0.069,-0.023 0.076,-0.035 0.082,-0.052C0.087,-0.069 0.09,-0.091 0.09,-0.119L0.09,-0.554Z" style="fill:white;fill-rule:nonzero;"/>
                    </g>
                    <g transform="matrix(24,0,0,24,934.634,420.424)">
                        <path d="M0.092,-0.55C0.092,-0.614 0.072,-0.653 0.031,-0.666L0.324,-0.666C0.395,-0.666 0.453,-0.647 0.496,-0.61C0.539,-0.573 0.56,-0.526 0.56,-0.471C0.56,-0.424 0.546,-0.384 0.517,-0.349C0.488,-0.314 0.448,-0.294 0.397,-0.287C0.414,-0.276 0.431,-0.257 0.447,-0.229L0.536,-0.075C0.549,-0.052 0.563,-0.034 0.58,-0.021C0.596,-0.008 0.61,-0.001 0.623,-0L0.42,-0L0.309,-0.205C0.297,-0.228 0.286,-0.243 0.277,-0.251C0.268,-0.258 0.256,-0.262 0.243,-0.262L0.229,-0.262L0.229,-0.111C0.229,-0.086 0.232,-0.065 0.237,-0.049C0.242,-0.033 0.249,-0.021 0.257,-0.014C0.264,-0.006 0.272,-0.001 0.28,-0L0.039,-0C0.048,-0.001 0.056,-0.006 0.065,-0.014C0.073,-0.021 0.08,-0.033 0.085,-0.05C0.09,-0.066 0.092,-0.086 0.092,-0.111L0.092,-0.55ZM0.298,-0.352C0.335,-0.352 0.365,-0.362 0.386,-0.383C0.406,-0.404 0.417,-0.432 0.417,-0.467C0.417,-0.498 0.406,-0.524 0.385,-0.545C0.363,-0.565 0.334,-0.575 0.297,-0.575L0.228,-0.575L0.228,-0.352L0.298,-0.352Z" style="fill:white;fill-rule:nonzero;"/>
                    </g>
                    <g transform="matrix(24,0,0,24,949.466,420.424)">
                        <path d="M0.309,-0.666L0.427,-0.666L0.647,-0.125C0.675,-0.053 0.707,-0.011 0.742,-0L0.473,-0C0.484,-0.001 0.493,-0.006 0.5,-0.014C0.506,-0.022 0.51,-0.033 0.51,-0.047C0.51,-0.057 0.498,-0.094 0.474,-0.158L0.219,-0.158C0.198,-0.101 0.188,-0.066 0.188,-0.052C0.188,-0.036 0.192,-0.024 0.201,-0.015C0.209,-0.006 0.218,-0.001 0.229,-0L0.005,-0C0.018,-0.002 0.034,-0.014 0.051,-0.036C0.068,-0.058 0.084,-0.089 0.099,-0.128L0.309,-0.666ZM0.44,-0.245L0.345,-0.491L0.252,-0.245L0.44,-0.245Z" style="fill:white;fill-rule:nonzero;"/>
                    </g>
                    <g transform="matrix(24,0,0,24,964.034,420.424)">
                        <path d="M0.251,-0.575L0.13,-0.575C0.088,-0.575 0.058,-0.556 0.04,-0.519L0.024,-0.485L0.04,-0.666L0.609,-0.666L0.624,-0.485C0.61,-0.52 0.594,-0.544 0.575,-0.557C0.556,-0.569 0.531,-0.575 0.5,-0.575L0.397,-0.575L0.397,-0.112C0.397,-0.078 0.402,-0.051 0.412,-0.032C0.422,-0.012 0.434,-0.001 0.448,-0L0.2,-0C0.215,-0.002 0.227,-0.012 0.236,-0.031C0.246,-0.049 0.251,-0.076 0.251,-0.112L0.251,-0.575Z" style="fill:white;fill-rule:nonzero;"/>
                    </g>
                    <g transform="matrix(24,0,0,24,979.586,420.424)">
                        <path d="M0.09,-0.554C0.09,-0.583 0.085,-0.608 0.074,-0.628C0.063,-0.649 0.048,-0.661 0.028,-0.666L0.481,-0.666L0.481,-0.488C0.472,-0.52 0.457,-0.543 0.437,-0.556C0.417,-0.569 0.391,-0.575 0.359,-0.575L0.233,-0.575L0.233,-0.382L0.343,-0.382C0.385,-0.381 0.412,-0.393 0.423,-0.416L0.423,-0.258C0.422,-0.267 0.414,-0.274 0.402,-0.281C0.389,-0.288 0.37,-0.291 0.345,-0.291L0.233,-0.291L0.233,-0.092L0.369,-0.092C0.411,-0.092 0.443,-0.099 0.465,-0.113C0.486,-0.126 0.506,-0.151 0.525,-0.186L0.493,-0L0.036,-0C0.045,-0.001 0.053,-0.006 0.061,-0.015C0.069,-0.023 0.076,-0.035 0.082,-0.052C0.087,-0.069 0.09,-0.091 0.09,-0.119L0.09,-0.554Z" style="fill:white;fill-rule:nonzero;"/>
                    </g>
                </g>
            </g>
        </g>
    </g>
</svg>
